<?xml version="1.0" encoding="UTF-8" standalone="no"?>
<!-- Created with Inkscape (http://www.inkscape.org/) -->

<svg
   xmlns:osb="http://www.openswatchbook.org/uri/2009/osb"
   xmlns:dc="http://purl.org/dc/elements/1.1/"
   xmlns:cc="http://creativecommons.org/ns#"
   xmlns:rdf="http://www.w3.org/1999/02/22-rdf-syntax-ns#"
   xmlns:svg="http://www.w3.org/2000/svg"
   xmlns="http://www.w3.org/2000/svg"
   xmlns:xlink="http://www.w3.org/1999/xlink"
   xmlns:sodipodi="http://sodipodi.sourceforge.net/DTD/sodipodi-0.dtd"
   xmlns:inkscape="http://www.inkscape.org/namespaces/inkscape"
   width="1122.5197"
   height="793.70081"
   viewBox="0 0 296.99998 210.00001"
   version="1.1"
   id="svg8"
   sodipodi:docname="GUMMYCOLORSLOGO.svg"
   inkscape:version="0.92.4 (5da689c313, 2019-01-14)">
  <defs
     id="defs2">
    <linearGradient
       id="linearGradient1181"
       osb:paint="solid">
      <stop
         style="stop-color:#b380ce;stop-opacity:1;"
         offset="0"
         id="stop1179" />
    </linearGradient>
    <linearGradient
       id="linearGradient1161"
       osb:paint="solid">
      <stop
         style="stop-color:#77c6e1;stop-opacity:1;"
         offset="0"
         id="stop1159" />
    </linearGradient>
    <linearGradient
       id="linearGradient2861"
       osb:paint="solid">
      <stop
         style="stop-color:#bd68b4;stop-opacity:0.49803922;"
         offset="0"
         id="stop2859" />
    </linearGradient>
    <linearGradient
       id="linearGradient2825"
       osb:paint="solid">
      <stop
         style="stop-color:#a113aa;stop-opacity:1;"
         offset="0"
         id="stop2823" />
    </linearGradient>
    <linearGradient
       inkscape:collect="always"
       id="linearGradient1303">
      <stop
         style="stop-color:#bd33b4;stop-opacity:1;"
         offset="0"
         id="stop1299" />
      <stop
         style="stop-color:#bd33b4;stop-opacity:0;"
         offset="1"
         id="stop1301" />
    </linearGradient>
    <radialGradient
       inkscape:collect="always"
       xlink:href="#linearGradient1303"
       id="radialGradient1305"
       cx="72.738519"
       cy="127.52863"
       fx="72.738519"
       fy="127.52863"
       r="10.622561"
       gradientTransform="matrix(0.87928684,0,0,0.79581082,-39.334528,107.94381)"
       gradientUnits="userSpaceOnUse" />
    <radialGradient
       inkscape:collect="always"
       xlink:href="#linearGradient1303"
       id="radialGradient1309"
       gradientUnits="userSpaceOnUse"
       gradientTransform="matrix(0.6661201,0,0,0.63353628,-22.122818,127.60533)"
       cx="72.738548"
       cy="127.52863"
       fx="72.738548"
       fy="127.52863"
       r="10.013358" />
    <radialGradient
       inkscape:collect="always"
       xlink:href="#linearGradient1303"
       id="radialGradient1311"
       gradientUnits="userSpaceOnUse"
       gradientTransform="matrix(0.6661201,0,0,0.62714806,-22.122818,128.42001)"
       cx="72.738519"
       cy="127.52863"
       fx="72.738519"
       fy="127.52863"
       r="10.622561" />
    <radialGradient
       inkscape:collect="always"
       xlink:href="#linearGradient1303"
       id="radialGradient1323"
       gradientUnits="userSpaceOnUse"
       gradientTransform="matrix(0.87928684,0,0,0.79581082,134.86012,69.401827)"
       cx="72.738519"
       cy="127.52863"
       fx="72.738519"
       fy="127.52863"
       r="10.622561" />
    <radialGradient
       inkscape:collect="always"
       xlink:href="#linearGradient1303"
       id="radialGradient1325"
       gradientUnits="userSpaceOnUse"
       gradientTransform="matrix(0.6661201,0,0,0.63353628,152.14527,89.159968)"
       cx="72.738548"
       cy="127.52863"
       fx="72.738548"
       fy="127.52863"
       r="10.013358" />
    <radialGradient
       inkscape:collect="always"
       xlink:href="#linearGradient1303"
       id="radialGradient1327"
       gradientUnits="userSpaceOnUse"
       gradientTransform="matrix(0.6661201,0,0,0.62714806,152.14527,89.974645)"
       cx="72.738519"
       cy="127.52863"
       fx="72.738519"
       fy="127.52863"
       r="10.622561" />
    <filter
       inkscape:collect="always"
       style="color-interpolation-filters:sRGB"
       id="filter2937"
       x="-0.12877156"
       width="1.2575431"
       y="-0.13539449"
       height="1.270789">
      <feGaussianBlur
         inkscape:collect="always"
         stdDeviation="0.71576588"
         id="feGaussianBlur2939" />
    </filter>
    <filter
       inkscape:collect="always"
       style="color-interpolation-filters:sRGB"
       id="filter3013"
       x="-0.12877156"
       width="1.2575431"
       y="-0.13539449"
       height="1.270789">
      <feGaussianBlur
         inkscape:collect="always"
         stdDeviation="0.71576588"
         id="feGaussianBlur3015" />
    </filter>
    <linearGradient
       inkscape:collect="always"
       xlink:href="#linearGradient2861"
       id="linearGradient3283"
       gradientUnits="userSpaceOnUse"
       gradientTransform="translate(7.1655826,15.900811)"
       x1="76.162369"
       y1="208.7542"
       x2="169.72505"
       y2="208.7542" />
    <meshgradient
       inkscape:collect="always"
       id="meshgradient1145"
       gradientUnits="userSpaceOnUse"
       x="-83.055115"
       y="105.37367"
       gradientTransform="matrix(0.96532727,0,0,0.96532726,-105.44373,58.237574)">
      <meshrow
         id="meshrow1147">
        <meshpatch
           id="meshpatch1149">
          <stop
             path="c 15.7678,0  31.5356,0  47.3034,0"
             style="stop-color:#ffffff;stop-opacity:1"
             id="stop1151" />
          <stop
             path="c 0,20.3276  0,40.6552  0,60.9828"
             style="stop-color:#81b3d7;stop-opacity:1"
             id="stop1153" />
          <stop
             path="c -15.7678,0  -31.5356,0  -47.3034,0"
             style="stop-color:#ffffff;stop-opacity:1"
             id="stop1155" />
          <stop
             path="c 0,-20.3276  0,-40.6552  0,-60.9828"
             style="stop-color:#81b3d7;stop-opacity:1"
             id="stop1157" />
        </meshpatch>
      </meshrow>
    </meshgradient>
    <meshgradient
       inkscape:collect="always"
       id="meshgradient1165"
       gradientUnits="userSpaceOnUse"
       x="12.172038"
       y="117.79584"
       gradientTransform="matrix(0.9625779,0,0,0.96257795,69.433859,66.7824)">
      <meshrow
         id="meshrow1167">
        <meshpatch
           id="meshpatch1169">
          <stop
             path="c 17.7839,0  35.5679,0  53.3518,0"
             style="stop-color:#ffffff;stop-opacity:1"
             id="stop1171" />
          <stop
             path="c 0,20.7055  0,41.4109  0,62.1164"
             style="stop-color:#b56bb5;stop-opacity:1"
             id="stop1173" />
          <stop
             path="c -17.7839,0  -35.5679,0  -53.3518,0"
             style="stop-color:#ffffff;stop-opacity:1"
             id="stop1175" />
          <stop
             path="c 0,-20.7055  0,-41.4109  0,-62.1164"
             style="stop-color:#b56bb5;stop-opacity:1"
             id="stop1177" />
        </meshpatch>
      </meshrow>
    </meshgradient>
    <radialGradient
       inkscape:collect="always"
       xlink:href="#linearGradient1303"
       id="radialGradient1758"
       gradientUnits="userSpaceOnUse"
       gradientTransform="matrix(0.87928684,0,0,0.79581082,-39.334528,107.94381)"
       cx="72.738519"
       cy="127.52863"
       fx="72.738519"
       fy="127.52863"
       r="10.622561" />
    <radialGradient
       inkscape:collect="always"
       xlink:href="#linearGradient1303"
       id="radialGradient1760"
       gradientUnits="userSpaceOnUse"
       gradientTransform="matrix(0.6661201,0,0,0.63353628,-22.122818,127.60533)"
       cx="72.738548"
       cy="127.52863"
       fx="72.738548"
       fy="127.52863"
       r="10.013358" />
    <radialGradient
       inkscape:collect="always"
       xlink:href="#linearGradient1303"
       id="radialGradient1762"
       gradientUnits="userSpaceOnUse"
       gradientTransform="matrix(0.6661201,0,0,0.62714806,-22.122818,128.42001)"
       cx="72.738519"
       cy="127.52863"
       fx="72.738519"
       fy="127.52863"
       r="10.622561" />
    <linearGradient
       inkscape:collect="always"
       xlink:href="#linearGradient1181"
       id="linearGradient1897"
       gradientUnits="userSpaceOnUse"
       gradientTransform="matrix(0.9625779,0,0,0.96257795,69.433859,66.7824)"
       x1="11.892618"
       y1="148.85405"
       x2="65.803234"
       y2="148.85405" />
    <linearGradient
       inkscape:collect="always"
       xlink:href="#linearGradient1161"
       id="linearGradient1919"
       gradientUnits="userSpaceOnUse"
       gradientTransform="matrix(0.96532727,0,0,0.96532726,-105.44373,58.237574)"
       x1="-83.470005"
       y1="135.86507"
       x2="-35.336793"
       y2="135.86507" />
  </defs>
  <sodipodi:namedview
     id="base"
     pagecolor="#ffffff"
     bordercolor="#666666"
     borderopacity="1.0"
     inkscape:pageopacity="0.0"
     inkscape:pageshadow="2"
     inkscape:zoom="0.67531744"
     inkscape:cx="561.25983"
     inkscape:cy="396.8504"
     inkscape:document-units="mm"
     inkscape:current-layer="layer1"
     showgrid="false"
     units="px"
     inkscape:window-width="1366"
     inkscape:window-height="705"
     inkscape:window-x="-8"
     inkscape:window-y="-8"
     inkscape:window-maximized="1" />
  <metadata
     id="metadata5">
    <rdf:RDF>
      <cc:Work
         rdf:about="">
        <dc:format>image/svg+xml</dc:format>
        <dc:type
           rdf:resource="http://purl.org/dc/dcmitype/StillImage" />
        <dc:title></dc:title>
      </cc:Work>
    </rdf:RDF>
  </metadata>
  <g
     inkscape:label="Camada 1"
     inkscape:groupmode="layer"
     id="layer1"
     transform="translate(0,-86.999992)">
    <flowRoot
       xml:space="preserve"
       id="flowRoot10"
       style="fill:black;fill-opacity:1;stroke:none;font-family:'Cooper Black';font-style:normal;font-weight:normal;font-size:40px;line-height:1.25;letter-spacing:0px;word-spacing:0px;-inkscape-font-specification:'Cooper Black, ';font-stretch:normal;font-variant:normal;text-anchor:start;text-align:start;writing-mode:lr;font-variant-ligatures:normal;font-variant-caps:normal;font-variant-numeric:normal;font-feature-settings:normal"><flowRegion
         id="flowRegion12"><rect
           id="rect14"
           width="165.66447"
           height="252.78114"
           x="274.20328"
           y="206.73442" /></flowRegion><flowPara
         id="flowPara16" /></flowRoot>    <flowRoot
       xml:space="preserve"
       id="flowRoot951"
       style="fill:black;fill-opacity:1;stroke:none;font-family:'Cooper Black';font-style:normal;font-weight:normal;font-size:40px;line-height:1.25;letter-spacing:0px;word-spacing:0px;-inkscape-font-specification:'Cooper Black, ';font-stretch:normal;font-variant:normal;text-anchor:start;text-align:start;writing-mode:lr;font-variant-ligatures:normal;font-variant-caps:normal;font-variant-numeric:normal;font-feature-settings:normal"><flowRegion
         id="flowRegion953"><rect
           id="rect955"
           width="2.8562841"
           height="158.52377"
           x="835.46307"
           y="121.0459" /></flowRegion><flowPara
         id="flowPara957" /></flowRoot>    <g
       id="g1989">
      <text
         transform="scale(-1.0048466,0.99517678)"
         id="text961"
         y="217.56586"
         x="-190.91121"
         style="font-style:normal;font-variant:normal;font-weight:normal;font-stretch:normal;font-size:103.22121429px;line-height:1.25;font-family:'David Libre';-inkscape-font-specification:'David Libre';font-variant-ligatures:normal;font-variant-caps:normal;font-variant-numeric:normal;font-feature-settings:normal;text-align:start;letter-spacing:0px;word-spacing:0px;writing-mode:lr-tb;text-anchor:start;fill:url(#meshgradient1145);fill-opacity:1;stroke:url(#linearGradient1919);stroke-width:0.80101073;stroke-miterlimit:4;stroke-dasharray:none;stroke-opacity:1"
         xml:space="preserve"><tspan
           style="font-style:normal;font-variant:normal;font-weight:normal;font-stretch:normal;font-family:'David Libre';-inkscape-font-specification:'David Libre';fill:url(#meshgradient1145);fill-opacity:1;stroke:url(#linearGradient1919);stroke-width:0.80101073;stroke-miterlimit:4;stroke-dasharray:none;stroke-opacity:1"
           y="217.56586"
           x="-190.91121"
           id="tspan959"
           sodipodi:role="line">c</tspan></text>
      <g
         transform="translate(84.284248,27.176179)"
         id="g1787">
        <g
           id="g3164"
           transform="matrix(0.47202174,0,0,0.46383601,60.691644,57.239771)">
          <path
             d="m 31.833985,204.81281 a 8.8046131,8.0499096 0 0 1 -2.142895,11.20255 8.8046131,8.0499096 0 0 1 -12.257206,-1.93618 8.8046131,8.0499096 0 0 1 2.092515,-11.21052 8.8046131,8.0499096 0 0 1 12.265807,1.89011"
             sodipodi:open="true"
             sodipodi:end="5.663733"
             sodipodi:start="5.6719535"
             sodipodi:ry="8.0499096"
             sodipodi:rx="8.8046131"
             sodipodi:cy="209.43246"
             sodipodi:cx="24.62352"
             sodipodi:type="arc"
             id="path1199"
             style="opacity:0.85139998;fill:#000000;fill-opacity:1;fill-rule:nonzero;stroke:url(#radialGradient1305);stroke-width:0.92100632;stroke-linecap:round;stroke-linejoin:miter;stroke-miterlimit:4;stroke-dasharray:none;stroke-dashoffset:0;stroke-opacity:1;paint-order:stroke fill markers" />
          <path
             inkscape:transform-center-y="4.6414909"
             inkscape:transform-center-x="36.796064"
             style="opacity:0.85139998;fill:url(#radialGradient1309);fill-opacity:1;fill-rule:nonzero;stroke:url(#radialGradient1311);stroke-width:0.71162963;stroke-linecap:round;stroke-linejoin:miter;stroke-miterlimit:4;stroke-dasharray:none;stroke-dashoffset:0;stroke-opacity:1;paint-order:stroke fill markers;filter:url(#filter3013)"
             id="path1307"
             sodipodi:type="arc"
             sodipodi:cx="26.329788"
             sodipodi:cy="208.39935"
             sodipodi:rx="6.6700993"
             sodipodi:ry="6.3438258"
             sodipodi:start="5.6719535"
             sodipodi:end="5.663733"
             sodipodi:open="true"
             d="m 31.792211,204.75878 a 6.6700993,6.3438258 0 0 1 -1.623391,8.8283 6.6700993,6.3438258 0 0 1 -9.285675,-1.52583 6.6700993,6.3438258 0 0 1 1.585224,-8.83458 6.6700993,6.3438258 0 0 1 9.292191,1.48953" />
        </g>
      </g>
      <g
         transform="matrix(0.47202174,0,0,0.46383601,56.360743,72.299499)"
         id="g3228">
        <path
           d="m 206.02864,166.27083 a 8.8046131,8.0499096 0 0 1 -2.14289,11.20256 8.8046131,8.0499096 0 0 1 -12.25721,-1.93619 8.8046131,8.0499096 0 0 1 2.09252,-11.21051 8.8046131,8.0499096 0 0 1 12.2658,1.89011"
           sodipodi:open="true"
           sodipodi:end="5.663733"
           sodipodi:start="5.6719535"
           sodipodi:ry="8.0499096"
           sodipodi:rx="8.8046131"
           sodipodi:cy="170.89049"
           sodipodi:cx="198.81818"
           sodipodi:type="arc"
           id="path1317"
           style="opacity:0.85139998;fill:#000000;fill-opacity:1;fill-rule:nonzero;stroke:url(#radialGradient1323);stroke-width:0.92100632;stroke-linecap:round;stroke-linejoin:miter;stroke-miterlimit:4;stroke-dasharray:none;stroke-dashoffset:0;stroke-opacity:1;paint-order:stroke fill markers" />
        <path
           inkscape:transform-center-y="4.6414909"
           inkscape:transform-center-x="36.796064"
           style="opacity:0.84100001;fill:url(#radialGradient1325);fill-opacity:1;fill-rule:nonzero;stroke:url(#radialGradient1327);stroke-width:0.71162963;stroke-linecap:round;stroke-linejoin:miter;stroke-miterlimit:4;stroke-dasharray:none;stroke-dashoffset:0;stroke-opacity:1;paint-order:stroke fill markers;filter:url(#filter2937)"
           id="path1319"
           sodipodi:type="arc"
           sodipodi:cx="200.59787"
           sodipodi:cy="169.95399"
           sodipodi:rx="6.6700993"
           sodipodi:ry="6.3438258"
           sodipodi:start="5.6719535"
           sodipodi:end="5.663733"
           sodipodi:open="true"
           d="m 206.06029,166.31342 a 6.6700993,6.3438258 0 0 1 -1.62339,8.82831 6.6700993,6.3438258 0 0 1 -9.28567,-1.52584 6.6700993,6.3438258 0 0 1 1.58522,-8.83457 6.6700993,6.3438258 0 0 1 9.29219,1.48952" />
      </g>
      <g
         transform="translate(79.443108,64.855775)"
         id="g1750">
        <path
           style="opacity:1;fill:#2d6ba5;fill-opacity:0.97647059;fill-rule:nonzero;stroke:none;stroke-width:0.55883974;stroke-linecap:round;stroke-linejoin:miter;stroke-miterlimit:4;stroke-dasharray:none;stroke-dashoffset:0;stroke-opacity:1;paint-order:stroke fill markers"
           id="path3124"
           sodipodi:type="arc"
           sodipodi:cx="86.559471"
           sodipodi:cy="65.512589"
           sodipodi:rx="9.8989449"
           sodipodi:ry="6.4848518"
           sodipodi:start="5.6864747"
           sodipodi:end="5.663733"
           sodipodi:open="true"
           d="m 94.747764,61.868591 a 9.8989449,6.4848518 0 0 1 -2.579369,8.987388 9.8989449,6.4848518 0 0 1 -13.733439,-1.638634 9.8989449,6.4848518 0 0 1 2.423209,-9.006021 9.8989449,6.4848518 0 0 1 13.760993,1.536229"
           transform="rotate(26.175571)" />
        <path
           style="opacity:1;fill:#2d6ba5;fill-opacity:0.97647059;fill-rule:nonzero;stroke:none;stroke-width:0.55883974;stroke-linecap:round;stroke-linejoin:miter;stroke-miterlimit:4;stroke-dasharray:none;stroke-dashoffset:0;stroke-opacity:1;paint-order:stroke fill markers"
           id="path3126"
           sodipodi:type="arc"
           sodipodi:cx="90.215836"
           sodipodi:cy="59.991699"
           sodipodi:rx="8.5612488"
           sodipodi:ry="9.3767462"
           sodipodi:start="5.6864747"
           sodipodi:end="5.663733"
           sodipodi:open="true"
           d="m 97.297602,54.722675 a 8.5612488,9.3767462 0 0 1 -2.230806,12.995279 8.5612488,9.3767462 0 0 1 -11.877568,-2.369377 8.5612488,9.3767462 0 0 1 2.095749,-13.02222 8.5612488,9.3767462 0 0 1 11.901398,2.221304"
           transform="rotate(26.175571)" />
        <path
           style="opacity:1;fill:#2d6ba5;fill-opacity:0.97647059;fill-rule:nonzero;stroke:none;stroke-width:0.55883974;stroke-linecap:round;stroke-linejoin:miter;stroke-miterlimit:4;stroke-dasharray:none;stroke-dashoffset:0;stroke-opacity:1;paint-order:stroke fill markers"
           id="path3130"
           sodipodi:type="arc"
           sodipodi:cx="108.85439"
           sodipodi:cy="54.120277"
           sodipodi:rx="8.1153507"
           sodipodi:ry="7.5364494"
           sodipodi:start="5.6864747"
           sodipodi:end="5.663733"
           sodipodi:open="true"
           d="m 115.56732,49.885361 a 8.1153507,7.5364494 0 0 1 -2.11462,10.444803 8.1153507,7.5364494 0 0 1 -11.25895,-1.904359 8.1153507,7.5364494 0 0 1 1.9866,-10.466457 8.1153507,7.5364494 0 0 1 11.28153,1.785347"
           transform="rotate(26.175571)" />
        <path
           style="opacity:1;fill:#2d6ba5;fill-opacity:0.97647059;fill-rule:nonzero;stroke:none;stroke-width:0.55883974;stroke-linecap:round;stroke-linejoin:miter;stroke-miterlimit:4;stroke-dasharray:none;stroke-dashoffset:0;stroke-opacity:1;paint-order:stroke fill markers"
           id="path3132"
           sodipodi:type="arc"
           sodipodi:cx="116.52384"
           sodipodi:cy="52.893402"
           sodipodi:rx="6.5101166"
           sodipodi:ry="6.6601181"
           sodipodi:start="5.6864747"
           sodipodi:end="5.663733"
           sodipodi:open="true"
           d="m 121.90894,49.150918 a 6.5101166,6.6601181 0 0 1 -1.69635,9.230291 6.5101166,6.6601181 0 0 1 -9.0319,-1.682922 6.5101166,6.6601181 0 0 1 1.59364,-9.249427 6.5101166,6.6601181 0 0 1 9.05003,1.577749"
           transform="rotate(26.175571)" />
        <path
           style="opacity:1;fill:#2d6ba5;fill-opacity:0.97647059;fill-rule:nonzero;stroke:none;stroke-width:0.55883974;stroke-linecap:round;stroke-linejoin:miter;stroke-miterlimit:4;stroke-dasharray:none;stroke-dashoffset:0;stroke-opacity:1;paint-order:stroke fill markers"
           id="path3134"
           sodipodi:type="arc"
           sodipodi:cx="108.01126"
           sodipodi:cy="52.403839"
           sodipodi:rx="9.0071468"
           sodipodi:ry="4.7321892"
           sodipodi:start="5.6864747"
           sodipodi:end="5.663733"
           sodipodi:open="true"
           d="m 115.46187,49.744706 a 9.0071468,4.7321892 0 0 1 -2.34699,6.558364 9.0071468,4.7321892 0 0 1 -12.49619,-1.19576 9.0071468,4.7321892 0 0 1 2.2049,-6.571961 9.0071468,4.7321892 0 0 1 12.52126,1.121032"
           transform="rotate(26.175571)" />
        <path
           style="opacity:1;fill:#b75ca5;fill-opacity:0.77386935;fill-rule:nonzero;stroke:none;stroke-width:0.84643793;stroke-linecap:round;stroke-linejoin:miter;stroke-miterlimit:4;stroke-dasharray:none;stroke-dashoffset:0;stroke-opacity:1;paint-order:stroke fill markers"
           id="path3140"
           sodipodi:type="arc"
           sodipodi:cx="102.27379"
           sodipodi:cy="49.982239"
           sodipodi:rx="8.7396078"
           sodipodi:ry="6.8353848"
           sodipodi:start="5.6864747"
           sodipodi:end="5.663733"
           sodipodi:open="true"
           d="m 109.50309,46.141268 a 8.7396078,6.8353848 0 0 1 -2.27728,9.473194 8.7396078,6.8353848 0 0 1 -12.125016,-1.72721 8.7396078,6.8353848 0 0 1 2.139409,-9.492833 8.7396078,6.8353848 0 0 1 12.149347,1.619268"
           transform="rotate(26.175571)" />
        <path
           style="opacity:1;fill:#b75ca5;fill-opacity:0.77386935;fill-rule:nonzero;stroke:none;stroke-width:0.55883974;stroke-linecap:round;stroke-linejoin:miter;stroke-miterlimit:4;stroke-dasharray:none;stroke-dashoffset:0;stroke-opacity:1;paint-order:stroke fill markers"
           id="path3138"
           sodipodi:type="arc"
           sodipodi:cx="85.043419"
           sodipodi:cy="65.249687"
           sodipodi:rx="8.7396078"
           sodipodi:ry="9.0262127"
           sodipodi:start="5.6864747"
           sodipodi:end="5.663733"
           sodipodi:open="true"
           d="M 92.272722,60.177637 A 8.7396078,9.0262127 0 0 1 89.995441,72.687109 8.7396078,9.0262127 0 0 1 77.870424,70.406307 8.7396078,9.0262127 0 0 1 80.009834,57.8709 8.7396078,9.0262127 0 0 1 92.159178,60.009165"
           transform="rotate(26.175571)" />
        <path
           style="opacity:1;fill:#b75ca5;fill-opacity:0.77386935;fill-rule:nonzero;stroke:none;stroke-width:0.55883974;stroke-linecap:round;stroke-linejoin:miter;stroke-miterlimit:4;stroke-dasharray:none;stroke-dashoffset:0;stroke-opacity:1;paint-order:stroke fill markers"
           id="path3142"
           sodipodi:type="arc"
           sodipodi:cx="96.101692"
           sodipodi:cy="54.032646"
           sodipodi:rx="6.9560146"
           sodipodi:ry="7.4488168"
           sodipodi:start="5.6864747"
           sodipodi:end="5.663733"
           sodipodi:open="true"
           d="m 101.85563,49.846973 a 6.9560146,7.4488168 0 0 1 -1.81253,10.323352 6.9560146,7.4488168 0 0 1 -9.650526,-1.882215 6.9560146,7.4488168 0 0 1 1.702795,-10.344754 6.9560146,7.4488168 0 0 1 9.669891,1.764587"
           transform="rotate(26.175571)" />
        <path
           style="opacity:1;fill:#2d6ba5;fill-opacity:0.97647059;fill-rule:nonzero;stroke:none;stroke-width:0.55886757;stroke-linecap:round;stroke-linejoin:miter;stroke-miterlimit:4;stroke-dasharray:none;stroke-dashoffset:0;stroke-opacity:1;paint-order:stroke fill markers"
           id="path3128"
           sodipodi:type="arc"
           sodipodi:cx="95.681587"
           sodipodi:cy="-63.418797"
           sodipodi:rx="6.3398328"
           sodipodi:ry="10.876145"
           sodipodi:start="5.6864747"
           sodipodi:end="5.663733"
           sodipodi:open="true"
           d="m 100.92582,-69.53037 a 6.3398328,10.876145 0 0 1 -1.651967,15.073303 6.3398328,10.876145 0 0 1 -8.795656,-2.748254 6.3398328,10.876145 0 0 1 1.551958,-15.104553 6.3398328,10.876145 0 0 1 8.813305,2.576504"
           transform="matrix(0.02021981,0.99979556,-0.99998143,0.00609456,0,0)" />
        <path
           style="opacity:1;fill:#b75ca5;fill-opacity:0.77386935;fill-rule:nonzero;stroke:none;stroke-width:0.55883974;stroke-linecap:round;stroke-linejoin:miter;stroke-miterlimit:4;stroke-dasharray:none;stroke-dashoffset:0;stroke-opacity:1;paint-order:stroke fill markers"
           id="path3144"
           sodipodi:type="arc"
           sodipodi:cx="106.84141"
           sodipodi:cy="51.717133"
           sodipodi:rx="0.056772117"
           sodipodi:ry="0.027806055"
           sodipodi:start="5.6864747"
           sodipodi:end="5.663733"
           sodipodi:open="true"
           d="m 106.88837,51.701508 a 0.05677212,0.02780605 0 0 1 -0.0148,0.03854 0.05677212,0.02780605 0 0 1 -0.0788,-0.007 0.05677212,0.02780605 0 0 1 0.0139,-0.03862 0.05677212,0.02780605 0 0 1 0.0789,0.0066"
           transform="rotate(26.175571)" />
      </g>
      <text
         transform="scale(1.1019834,0.90745468)"
         id="text32"
         y="238.83954"
         x="76.699867"
         style="font-style:normal;font-variant:normal;font-weight:normal;font-stretch:normal;font-size:79.25812531px;line-height:1.25;font-family:'David Libre';-inkscape-font-specification:'David Libre';font-variant-ligatures:normal;font-variant-caps:normal;font-variant-numeric:normal;font-feature-settings:normal;text-align:start;letter-spacing:0px;word-spacing:0px;writing-mode:lr-tb;text-anchor:start;fill:url(#meshgradient1165);fill-opacity:1;fill-rule:nonzero;stroke:url(#linearGradient1897);stroke-width:1.01937008;stroke-miterlimit:4;stroke-dasharray:none;stroke-opacity:1"
         xml:space="preserve"><tspan
           style="font-style:normal;font-variant:normal;font-weight:normal;font-stretch:normal;font-family:'David Libre';-inkscape-font-specification:'David Libre';fill:url(#meshgradient1165);fill-opacity:1;fill-rule:nonzero;stroke:url(#linearGradient1897);stroke-width:1.01937008;stroke-miterlimit:4;stroke-dasharray:none;stroke-opacity:1"
           y="238.83954"
           x="76.699867"
           id="tspan30"
           sodipodi:role="line">G</tspan></text>
      <path
         transform="scale(-1,1)"
         style="opacity:1;fill:#2d6ba5;fill-opacity:0.97647059;fill-rule:nonzero;stroke:none;stroke-width:0.70934719;stroke-linecap:round;stroke-linejoin:miter;stroke-miterlimit:4;stroke-dasharray:none;stroke-dashoffset:0;stroke-opacity:1;paint-order:stroke fill markers"
         id="path3240"
         sodipodi:type="arc"
         sodipodi:cx="-191.84985"
         sodipodi:cy="179.10347"
         sodipodi:rx="10.646195"
         sodipodi:ry="10.495483"
         sodipodi:start="5.6864747"
         sodipodi:end="5.663733"
         sodipodi:open="true"
         d="m -183.04344,173.2058 a 10.646195,10.495483 0 0 1 -2.77408,14.54574 10.646195,10.495483 0 0 1 -14.77015,-2.65206 10.646195,10.495483 0 0 1 2.60613,-14.5759 10.646195,10.495483 0 0 1 14.79978,2.48632" />
      <path
         transform="scale(-1,1)"
         style="opacity:1;fill:#2d6ba5;fill-opacity:0.97647059;fill-rule:nonzero;stroke:none;stroke-width:0.70934719;stroke-linecap:round;stroke-linejoin:miter;stroke-miterlimit:4;stroke-dasharray:none;stroke-dashoffset:0;stroke-opacity:1;paint-order:stroke fill markers"
         id="path3242"
         sodipodi:type="arc"
         sodipodi:cx="-188.66824"
         sodipodi:cy="171.28331"
         sodipodi:rx="13.583076"
         sodipodi:ry="7.6143708"
         sodipodi:start="5.6864747"
         sodipodi:end="5.663733"
         sodipodi:open="true"
         d="m -177.43248,167.00461 a 13.583076,7.6143708 0 0 1 -3.53934,10.55279 13.583076,7.6143708 0 0 1 -18.84467,-1.92405 13.583076,7.6143708 0 0 1 3.32506,-10.57467 13.583076,7.6143708 0 0 1 18.88248,1.80381" />
      <path
         transform="scale(-1,1)"
         style="opacity:1;fill:#2d6ba5;fill-opacity:0.97647059;fill-rule:nonzero;stroke:none;stroke-width:0.70934719;stroke-linecap:round;stroke-linejoin:miter;stroke-miterlimit:4;stroke-dasharray:none;stroke-dashoffset:0;stroke-opacity:1;paint-order:stroke fill markers"
         id="path3244"
         sodipodi:type="arc"
         sodipodi:cx="-183.65108"
         sodipodi:cy="164.8008"
         sodipodi:rx="11.747524"
         sodipodi:ry="11.00997"
         sodipodi:start="5.6864747"
         sodipodi:end="5.663733"
         sodipodi:open="true"
         d="m -173.93366,158.61402 a 11.747524,11.00997 0 0 1 -3.06105,15.25878 11.747524,11.00997 0 0 1 -16.2981,-2.78208 11.747524,11.00997 0 0 1 2.87574,-15.2904 11.747524,11.00997 0 0 1 16.33079,2.60821" />
      <path
         transform="scale(-1,1)"
         style="opacity:1;fill:#2d6ba5;fill-opacity:0.97647059;fill-rule:nonzero;stroke:none;stroke-width:0.70934719;stroke-linecap:round;stroke-linejoin:miter;stroke-miterlimit:4;stroke-dasharray:none;stroke-dashoffset:0;stroke-opacity:1;paint-order:stroke fill markers"
         id="path3246"
         sodipodi:type="arc"
         sodipodi:cx="-158.07573"
         sodipodi:cy="157.90669"
         sodipodi:rx="11.135674"
         sodipodi:ry="8.8491335"
         sodipodi:start="5.6864747"
         sodipodi:end="5.663733"
         sodipodi:open="true"
         d="m -148.86443,152.93415 a 11.135674,8.8491335 0 0 1 -2.90162,12.26405 11.135674,8.8491335 0 0 1 -15.44923,-2.23605 11.135674,8.8491335 0 0 1 2.72595,-12.28949 11.135674,8.8491335 0 0 1 15.48023,2.09632" />
      <path
         transform="scale(-1,1)"
         style="opacity:1;fill:#2d6ba5;fill-opacity:0.97647059;fill-rule:nonzero;stroke:none;stroke-width:0.70934719;stroke-linecap:round;stroke-linejoin:miter;stroke-miterlimit:4;stroke-dasharray:none;stroke-dashoffset:0;stroke-opacity:1;paint-order:stroke fill markers"
         id="path3248"
         sodipodi:type="arc"
         sodipodi:cx="-147.55191"
         sodipodi:cy="156.46614"
         sodipodi:rx="8.9330139"
         sodipodi:ry="7.8201647"
         sodipodi:start="5.6864747"
         sodipodi:end="5.663733"
         sodipodi:open="true"
         d="m -140.16262,152.0718 a 8.9330139,7.8201647 0 0 1 -2.32768,10.838 8.9330139,7.8201647 0 0 1 -12.39334,-1.97605 8.9330139,7.8201647 0 0 1 2.18675,-10.86047 8.9330139,7.8201647 0 0 1 12.41821,1.85256" />
      <path
         transform="scale(-1,1)"
         style="opacity:1;fill:#2d6ba5;fill-opacity:0.97647059;fill-rule:nonzero;stroke:none;stroke-width:0.70934719;stroke-linecap:round;stroke-linejoin:miter;stroke-miterlimit:4;stroke-dasharray:none;stroke-dashoffset:0;stroke-opacity:1;paint-order:stroke fill markers"
         id="path3250"
         sodipodi:type="arc"
         sodipodi:cx="-159.23264"
         sodipodi:cy="155.89128"
         sodipodi:rx="12.359375"
         sodipodi:ry="5.5564327"
         sodipodi:start="5.6864747"
         sodipodi:end="5.663733"
         sodipodi:open="true"
         d="m -149.0091,152.76899 a 12.359375,5.5564327 0 0 1 -3.22049,7.70068 12.359375,5.5564327 0 0 1 -17.14695,-1.40403 12.359375,5.5564327 0 0 1 3.02551,-7.71666 12.359375,5.5564327 0 0 1 17.18136,1.3163" />
      <path
         transform="scale(-1,1)"
         style="opacity:1;fill:#b75ca5;fill-opacity:0.77386935;fill-rule:nonzero;stroke:none;stroke-width:1.07440174;stroke-linecap:round;stroke-linejoin:miter;stroke-miterlimit:4;stroke-dasharray:none;stroke-dashoffset:0;stroke-opacity:1;paint-order:stroke fill markers"
         id="path3252"
         sodipodi:type="arc"
         sodipodi:cx="-167.10545"
         sodipodi:cy="153.0479"
         sodipodi:rx="11.992265"
         sodipodi:ry="8.025959"
         sodipodi:start="5.6864747"
         sodipodi:end="5.663733"
         sodipodi:open="true"
         d="m -157.18559,148.53791 a 11.992265,8.025959 0 0 1 -3.12483,11.12322 11.992265,8.025959 0 0 1 -16.63763,-2.02805 11.992265,8.025959 0 0 1 2.93564,-11.14628 11.992265,8.025959 0 0 1 16.67102,1.90131" />
      <path
         transform="scale(-1,1)"
         style="opacity:1;fill:#b75ca5;fill-opacity:0.77386935;fill-rule:nonzero;stroke:none;stroke-width:0.70934719;stroke-linecap:round;stroke-linejoin:miter;stroke-miterlimit:4;stroke-dasharray:none;stroke-dashoffset:0;stroke-opacity:1;paint-order:stroke fill markers"
         id="path3254"
         sodipodi:type="arc"
         sodipodi:cx="-190.74854"
         sodipodi:cy="170.97461"
         sodipodi:rx="11.992265"
         sodipodi:ry="10.598381"
         sodipodi:start="5.6864747"
         sodipodi:end="5.663733"
         sodipodi:open="true"
         d="m -180.82867,165.01912 a 11.992265,10.598381 0 0 1 -3.12483,14.68835 11.992265,10.598381 0 0 1 -16.63763,-2.67807 11.992265,10.598381 0 0 1 2.93564,-14.7188 11.992265,10.598381 0 0 1 16.67102,2.5107" />
      <path
         transform="scale(-1,1)"
         style="opacity:1;fill:#b75ca5;fill-opacity:0.77386935;fill-rule:nonzero;stroke:none;stroke-width:0.70934719;stroke-linecap:round;stroke-linejoin:miter;stroke-miterlimit:4;stroke-dasharray:none;stroke-dashoffset:0;stroke-opacity:1;paint-order:stroke fill markers"
         id="path3256"
         sodipodi:type="arc"
         sodipodi:cx="-175.57465"
         sodipodi:cy="157.8038"
         sodipodi:rx="9.5448637"
         sodipodi:ry="8.7462378"
         sodipodi:start="5.6864747"
         sodipodi:end="5.663733"
         sodipodi:open="true"
         d="m -167.67924,152.88908 a 9.5448637,8.7462378 0 0 1 -2.48711,12.12145 9.5448637,8.7462378 0 0 1 -13.2422,-2.21006 9.5448637,8.7462378 0 0 1 2.33653,-12.14658 9.5448637,8.7462378 0 0 1 13.26877,2.07194" />
      <path
         style="opacity:1;fill:#2d6ba5;fill-opacity:0.97647059;fill-rule:nonzero;stroke:none;stroke-width:0.71283031;stroke-linecap:round;stroke-linejoin:miter;stroke-miterlimit:4;stroke-dasharray:none;stroke-dashoffset:0;stroke-opacity:1;paint-order:stroke fill markers"
         id="path3258"
         sodipodi:type="arc"
         sodipodi:cx="82.283501"
         sodipodi:cy="230.35136"
         sodipodi:rx="7.7257457"
         sodipodi:ry="14.520008"
         sodipodi:start="5.6864747"
         sodipodi:end="5.663733"
         sodipodi:open="true"
         d="m 88.674148,222.19221 a 7.7257457,14.520008 0 0 1 -2.013098,20.12336 7.7257457,14.520008 0 0 1 -10.718421,-3.66901 7.7257457,14.520008 0 0 1 1.891221,-20.16507 7.7257457,14.520008 0 0 1 10.739926,3.43971"
         transform="matrix(-0.51704569,0.8559578,0.91963382,0.39277683,0,0)" />
      <path
         transform="scale(-1,1)"
         style="opacity:1;fill:#b75ca5;fill-opacity:0.77386935;fill-rule:nonzero;stroke:none;stroke-width:0.70934719;stroke-linecap:round;stroke-linejoin:miter;stroke-miterlimit:4;stroke-dasharray:none;stroke-dashoffset:0;stroke-opacity:1;paint-order:stroke fill markers"
         id="path3260"
         sodipodi:type="arc"
         sodipodi:cx="-160.83791"
         sodipodi:cy="155.08499"
         sodipodi:rx="0.077901237"
         sodipodi:ry="0.03264926"
         sodipodi:start="5.6864747"
         sodipodi:end="5.663733"
         sodipodi:open="true"
         d="m -160.77347,155.06665 a 0.07790124,0.03264926 0 0 1 -0.0203,0.0452 0.07790124,0.03264926 0 0 1 -0.10807,-0.008 0.07790124,0.03264926 0 0 1 0.0191,-0.0453 0.07790124,0.03264926 0 0 1 0.10829,0.008" />
      <g
         id="g1726"
         transform="matrix(0.64341252,0.07436737,-0.06253305,0.54102419,-28.742894,73.62705)">
        <path
           style="opacity:1;fill:#2d6ba5;fill-opacity:0.97647059;fill-rule:nonzero;stroke:none;stroke-width:1.19432914;stroke-linecap:round;stroke-linejoin:miter;stroke-miterlimit:4;stroke-dasharray:none;stroke-dashoffset:0;stroke-opacity:1;paint-order:stroke fill markers"
           id="path1704"
           sodipodi:type="arc"
           sodipodi:cx="197.43321"
           sodipodi:cy="162.10306"
           sodipodi:rx="16.437023"
           sodipodi:ry="19.27099"
           sodipodi:start="5.6864747"
           sodipodi:end="5.663733"
           sodipodi:open="true"
           d="m 211.02973,151.27421 a 16.437023,19.27099 0 0 1 -4.283,26.70777 16.437023,19.27099 0 0 1 -22.80413,-4.86952 16.437023,19.27099 0 0 1 4.02369,-26.76313 16.437023,19.27099 0 0 1 22.84989,4.5652" />
        <path
           style="opacity:1;fill:#2d6ba5;fill-opacity:0.97647059;fill-rule:nonzero;stroke:none;stroke-width:1.19432914;stroke-linecap:round;stroke-linejoin:miter;stroke-miterlimit:4;stroke-dasharray:none;stroke-dashoffset:0;stroke-opacity:1;paint-order:stroke fill markers"
           id="path1706"
           sodipodi:type="arc"
           sodipodi:cx="202.34541"
           sodipodi:cy="147.74428"
           sodipodi:rx="20.971375"
           sodipodi:ry="13.980915"
           sodipodi:start="5.6864747"
           sodipodi:end="5.663733"
           sodipodi:open="true"
           d="m 219.69269,139.88806 a 20.971375,13.980915 0 0 1 -5.46451,19.37622 20.971375,13.980915 0 0 1 -29.09493,-3.53279 20.971375,13.980915 0 0 1 5.13368,-19.41639 20.971375,13.980915 0 0 1 29.1533,3.31201" />
        <path
           style="opacity:1;fill:#2d6ba5;fill-opacity:0.97647059;fill-rule:nonzero;stroke:none;stroke-width:1.19432914;stroke-linecap:round;stroke-linejoin:miter;stroke-miterlimit:4;stroke-dasharray:none;stroke-dashoffset:0;stroke-opacity:1;paint-order:stroke fill markers"
           id="path1708"
           sodipodi:type="arc"
           sodipodi:cx="210.0916"
           sodipodi:cy="135.8416"
           sodipodi:rx="18.137403"
           sodipodi:ry="20.215649"
           sodipodi:start="5.6864747"
           sodipodi:end="5.663733"
           sodipodi:open="true"
           d="m 225.09465,124.48193 a 18.137403,20.215649 0 0 1 -4.72607,28.01697 18.137403,20.215649 0 0 1 -25.16318,-5.10823 18.137403,20.215649 0 0 1 4.43994,-28.07505 18.137403,20.215649 0 0 1 25.21367,4.78899" />
        <path
           style="opacity:1;fill:#2d6ba5;fill-opacity:0.97647059;fill-rule:nonzero;stroke:none;stroke-width:1.19432914;stroke-linecap:round;stroke-linejoin:miter;stroke-miterlimit:4;stroke-dasharray:none;stroke-dashoffset:0;stroke-opacity:1;paint-order:stroke fill markers"
           id="path1710"
           sodipodi:type="arc"
           sodipodi:cx="249.57823"
           sodipodi:cy="123.1832"
           sodipodi:rx="17.192747"
           sodipodi:ry="16.248091"
           sodipodi:start="5.6864747"
           sodipodi:end="5.663733"
           sodipodi:open="true"
           d="m 263.79987,114.053 a 17.192747,16.248091 0 0 1 -4.47991,22.5183 17.192747,16.248091 0 0 1 -23.8526,-4.10567 17.192747,16.248091 0 0 1 4.20869,-22.56499 17.192747,16.248091 0 0 1 23.90046,3.84909" />
        <path
           style="opacity:1;fill:#2d6ba5;fill-opacity:0.97647059;fill-rule:nonzero;stroke:none;stroke-width:1.19432914;stroke-linecap:round;stroke-linejoin:miter;stroke-miterlimit:4;stroke-dasharray:none;stroke-dashoffset:0;stroke-opacity:1;paint-order:stroke fill markers"
           id="path1712"
           sodipodi:type="arc"
           sodipodi:cx="265.82632"
           sodipodi:cy="120.53815"
           sodipodi:rx="13.791985"
           sodipodi:ry="14.358778"
           sodipodi:start="5.6864747"
           sodipodi:end="5.663733"
           sodipodi:open="true"
           d="m 277.2349,112.4696 a 13.791985,14.358778 0 0 1 -3.59378,19.8999 13.791985,14.358778 0 0 1 -19.13451,-3.62827 13.791985,14.358778 0 0 1 3.37621,-19.94116 13.791985,14.358778 0 0 1 19.17289,3.40152" />
        <path
           style="opacity:1;fill:#2d6ba5;fill-opacity:0.97647059;fill-rule:nonzero;stroke:none;stroke-width:1.19432914;stroke-linecap:round;stroke-linejoin:miter;stroke-miterlimit:4;stroke-dasharray:none;stroke-dashoffset:0;stroke-opacity:1;paint-order:stroke fill markers"
           id="path1714"
           sodipodi:type="arc"
           sodipodi:cx="247.79205"
           sodipodi:cy="119.48266"
           sodipodi:rx="19.08206"
           sodipodi:ry="10.20229"
           sodipodi:start="5.6864747"
           sodipodi:end="5.663733"
           sodipodi:open="true"
           d="m 263.57651,113.74974 a 19.08206,10.20229 0 0 1 -4.97221,14.1394 19.08206,10.20229 0 0 1 -26.47376,-2.57798 19.08206,10.20229 0 0 1 4.67118,-14.16871 19.08206,10.20229 0 0 1 26.52688,2.41687" />
        <path
           style="opacity:1;fill:#b75ca5;fill-opacity:0.77386935;fill-rule:nonzero;stroke:none;stroke-width:1.80897212;stroke-linecap:round;stroke-linejoin:miter;stroke-miterlimit:4;stroke-dasharray:none;stroke-dashoffset:0;stroke-opacity:1;paint-order:stroke fill markers"
           id="path1716"
           sodipodi:type="arc"
           sodipodi:cx="235.63693"
           sodipodi:cy="114.26185"
           sodipodi:rx="18.515266"
           sodipodi:ry="14.736641"
           sodipodi:start="5.6864747"
           sodipodi:end="5.663733"
           sodipodi:open="true"
           d="m 250.95255,105.98097 a 18.515266,14.736641 0 0 1 -4.82453,20.42358 18.515266,14.736641 0 0 1 -25.68741,-3.72375 18.515266,14.736641 0 0 1 4.53244,-20.46592 18.515266,14.736641 0 0 1 25.73895,3.49103" />
        <path
           style="opacity:1;fill:#b75ca5;fill-opacity:0.77386935;fill-rule:nonzero;stroke:none;stroke-width:1.19432914;stroke-linecap:round;stroke-linejoin:miter;stroke-miterlimit:4;stroke-dasharray:none;stroke-dashoffset:0;stroke-opacity:1;paint-order:stroke fill markers"
           id="path1718"
           sodipodi:type="arc"
           sodipodi:cx="199.13359"
           sodipodi:cy="147.17747"
           sodipodi:rx="18.515266"
           sodipodi:ry="19.459923"
           sodipodi:start="5.6864747"
           sodipodi:end="5.663733"
           sodipodi:open="true"
           d="m 214.44921,136.24247 a 18.515266,19.459923 0 0 1 -4.82453,26.9696 18.515266,19.459923 0 0 1 -25.68741,-4.91726 18.515266,19.459923 0 0 1 4.53244,-27.02552 18.515266,19.459923 0 0 1 25.73895,4.60996" />
        <path
           style="opacity:1;fill:#b75ca5;fill-opacity:0.77386935;fill-rule:nonzero;stroke:none;stroke-width:1.19432914;stroke-linecap:round;stroke-linejoin:miter;stroke-miterlimit:4;stroke-dasharray:none;stroke-dashoffset:0;stroke-opacity:1;paint-order:stroke fill markers"
           id="path1720"
           sodipodi:type="arc"
           sodipodi:cx="222.56107"
           sodipodi:cy="122.99427"
           sodipodi:rx="14.736641"
           sodipodi:ry="16.05916"
           sodipodi:start="5.6864747"
           sodipodi:end="5.663733"
           sodipodi:open="true"
           d="m 234.75105,113.97023 a 14.736641,16.05916 0 0 1 -3.83993,22.25647 14.736641,16.05916 0 0 1 -20.44509,-4.05793 14.736641,16.05916 0 0 1 3.60745,-22.30261 14.736641,16.05916 0 0 1 20.48611,3.80433" />
        <path
           style="opacity:1;fill:#2d6ba5;fill-opacity:0.97647059;fill-rule:nonzero;stroke:none;stroke-width:1.19432914;stroke-linecap:round;stroke-linejoin:miter;stroke-miterlimit:4;stroke-dasharray:none;stroke-dashoffset:0;stroke-opacity:1;paint-order:stroke fill markers"
           id="path1722"
           sodipodi:type="arc"
           sodipodi:cx="219.92104"
           sodipodi:cy="-148.79572"
           sodipodi:rx="13.618629"
           sodipodi:ry="23.123289"
           sodipodi:start="5.6864747"
           sodipodi:end="5.663733"
           sodipodi:open="true"
           d="m 231.18621,-161.78926 a 13.618629,23.123289 0 0 1 -3.54861,32.04668 13.618629,23.123289 0 0 1 -18.89399,-5.84294 13.618629,23.123289 0 0 1 3.33376,-32.11312 13.618629,23.123289 0 0 1 18.93191,5.47779"
           transform="rotate(63.072625)" />
        <path
           style="opacity:1;fill:#b75ca5;fill-opacity:0.77386935;fill-rule:nonzero;stroke:none;stroke-width:1.19432914;stroke-linecap:round;stroke-linejoin:miter;stroke-miterlimit:4;stroke-dasharray:none;stroke-dashoffset:0;stroke-opacity:1;paint-order:stroke fill markers"
           id="path1724"
           sodipodi:type="arc"
           sodipodi:cx="245.31363"
           sodipodi:cy="118.00219"
           sodipodi:rx="0.12027437"
           sodipodi:ry="0.059948031"
           sodipodi:start="5.6864747"
           sodipodi:end="5.663733"
           sodipodi:open="true"
           d="m 245.41312,117.9685 a 0.12027437,0.05994803 0 0 1 -0.0313,0.0831 0.12027437,0.05994803 0 0 1 -0.16687,-0.0152 0.12027437,0.05994803 0 0 1 0.0294,-0.0833 0.12027437,0.05994803 0 0 1 0.1672,0.0142" />
      </g>
      <g
         id="g1756"
         transform="matrix(0.47202174,0,0,0.46383601,107.4512,83.030759)">
        <path
           d="m 31.833985,204.81281 a 8.8046131,8.0499096 0 0 1 -2.142895,11.20255 8.8046131,8.0499096 0 0 1 -12.257206,-1.93618 8.8046131,8.0499096 0 0 1 2.092515,-11.21052 8.8046131,8.0499096 0 0 1 12.265807,1.89011"
           sodipodi:open="true"
           sodipodi:end="5.663733"
           sodipodi:start="5.6719535"
           sodipodi:ry="8.0499096"
           sodipodi:rx="8.8046131"
           sodipodi:cy="209.43246"
           sodipodi:cx="24.62352"
           sodipodi:type="arc"
           id="path1752"
           style="opacity:0.85139998;fill:#000000;fill-opacity:1;fill-rule:nonzero;stroke:url(#radialGradient1758);stroke-width:0.92100632;stroke-linecap:round;stroke-linejoin:miter;stroke-miterlimit:4;stroke-dasharray:none;stroke-dashoffset:0;stroke-opacity:1;paint-order:stroke fill markers" />
        <path
           inkscape:transform-center-y="4.6414909"
           inkscape:transform-center-x="36.796064"
           style="opacity:0.85139998;fill:url(#radialGradient1760);fill-opacity:1;fill-rule:nonzero;stroke:url(#radialGradient1762);stroke-width:0.71162963;stroke-linecap:round;stroke-linejoin:miter;stroke-miterlimit:4;stroke-dasharray:none;stroke-dashoffset:0;stroke-opacity:1;paint-order:stroke fill markers;filter:url(#filter3013)"
           id="path1754"
           sodipodi:type="arc"
           sodipodi:cx="26.329788"
           sodipodi:cy="208.39935"
           sodipodi:rx="6.6700993"
           sodipodi:ry="6.3438258"
           sodipodi:start="5.6719535"
           sodipodi:end="5.663733"
           sodipodi:open="true"
           d="m 31.792211,204.75878 a 6.6700993,6.3438258 0 0 1 -1.623391,8.8283 6.6700993,6.3438258 0 0 1 -9.285675,-1.52583 6.6700993,6.3438258 0 0 1 1.585224,-8.83458 6.6700993,6.3438258 0 0 1 9.292191,1.48953" />
      </g>
      <path
         d="m -134.20553,145.82135 a 11.992265,10.598381 0 0 1 -3.12483,14.68835 11.992265,10.598381 0 0 1 -16.63764,-2.67807 11.992265,10.598381 0 0 1 2.93565,-14.7188 11.992265,10.598381 0 0 1 16.67101,2.5107"
         sodipodi:open="true"
         sodipodi:end="5.663733"
         sodipodi:start="5.6864747"
         sodipodi:ry="10.598381"
         sodipodi:rx="11.992265"
         sodipodi:cy="151.77684"
         sodipodi:cx="-144.1254"
         sodipodi:type="arc"
         id="path1932"
         style="opacity:1;fill:#b75ca5;fill-opacity:0.77386935;fill-rule:nonzero;stroke:none;stroke-width:0.70934719;stroke-linecap:round;stroke-linejoin:miter;stroke-miterlimit:4;stroke-dasharray:none;stroke-dashoffset:0;stroke-opacity:1;paint-order:stroke fill markers"
         transform="scale(-1,1)" />
      <path
         transform="scale(-1,1)"
         style="opacity:1;fill:#b75ca5;fill-opacity:0.77386935;fill-rule:nonzero;stroke:none;stroke-width:0.70934719;stroke-linecap:round;stroke-linejoin:miter;stroke-miterlimit:4;stroke-dasharray:none;stroke-dashoffset:0;stroke-opacity:1;paint-order:stroke fill markers"
         id="path1934"
         sodipodi:type="arc"
         sodipodi:cx="-144.1254"
         sodipodi:cy="151.77684"
         sodipodi:rx="11.992265"
         sodipodi:ry="10.598381"
         sodipodi:start="5.6864747"
         sodipodi:end="5.663733"
         sodipodi:open="true"
         d="m -134.20553,145.82135 a 11.992265,10.598381 0 0 1 -3.12483,14.68835 11.992265,10.598381 0 0 1 -16.63764,-2.67807 11.992265,10.598381 0 0 1 2.93565,-14.7188 11.992265,10.598381 0 0 1 16.67101,2.5107" />
      <path
         d="m -125.95823,149.4613 a 11.992265,10.598381 0 0 1 -3.12483,14.68835 11.992265,10.598381 0 0 1 -16.63764,-2.67807 11.992265,10.598381 0 0 1 2.93565,-14.7188 11.992265,10.598381 0 0 1 16.67101,2.51071"
         sodipodi:open="true"
         sodipodi:end="5.663733"
         sodipodi:start="5.6864747"
         sodipodi:ry="10.598381"
         sodipodi:rx="11.992265"
         sodipodi:cy="155.41679"
         sodipodi:cx="-135.8781"
         sodipodi:type="arc"
         id="path1936"
         style="opacity:1;fill:#b75ca5;fill-opacity:0.77386935;fill-rule:nonzero;stroke:none;stroke-width:0.70934719;stroke-linecap:round;stroke-linejoin:miter;stroke-miterlimit:4;stroke-dasharray:none;stroke-dashoffset:0;stroke-opacity:1;paint-order:stroke fill markers"
         transform="scale(-1,1)" />
    </g>
  </g>
</svg>
